<svg version="1.1" xmlns="http://www.w3.org/2000/svg" xmlns:xlink="http://www.w3.org/1999/xlink" width="290.0317" height="325.33099" viewBox="0,0,290.0317,325.33099"><g transform="translate(-95.03684,-17.54672)"><g data-paper-data="{&quot;isPaintingLayer&quot;:true}" fill-rule="nonzero" stroke="#000000" stroke-width="1.5" stroke-linejoin="miter" stroke-miterlimit="10" stroke-dasharray="" stroke-dashoffset="0" style="mix-blend-mode: normal"><path d="M96.76534,260.87299l-0.43417,-163.61092l144.88599,80.72646l-1.78872,163.61093z" fill="#1a1a1a" stroke-linecap="butt"/><path d="M125.2939,246.4579l-0.27703,-104.40105l85.55631,48.41236l0.27703,104.40105z" fill="#272727" stroke-linecap="butt"/><path d="M128.13522,244.91535l-0.26086,-98.30127l80.21313,45.38889l0.26086,98.30127z" fill="#2d2d2d" stroke-linecap="butt"/><g fill="none" stroke-linecap="round"><path d="M210.49142,190.47392l-2.48595,1.4286"/><path d="M125.35665,142.30008l2.50102,4.2505"/></g><g fill="none" stroke-linecap="round"><path d="M208.17735,290.18469l2.50102,4.2505"/><path d="M128.20765,244.93353l-2.48595,1.42861"/></g><path d="M183.52603,270.29057l-1.42409,-2.2413c-0.78326,-1.23272 -4.61159,-7.21005 -8.5074,-13.28296l-7.08331,-11.04166l-10.65018,-2.59665c-5.85761,-1.42816 -10.67734,-2.64379 -10.71053,-2.70138c-0.03319,-0.0576 1.78902,-4.44076 4.04938,-9.74033l4.10974,-9.63559l-0.07488,-0.36161c-0.04119,-0.19889 -2.78166,-6.72966 -6.08995,-14.51283c-3.3083,-7.78318 -5.9952,-14.15545 -5.9709,-14.16063c0.02431,-0.00516 5.02484,3.24288 11.11233,7.2179c6.08746,3.97501 11.11056,7.19266 11.16245,7.15032c0.05187,-0.04235 3.17175,-2.88597 6.93304,-6.31919c3.76131,-3.4332 6.85901,-6.15696 6.88377,-6.05276c0.02478,0.1042 1.23647,6.5143 2.69266,14.2447c1.4562,7.73039 2.67366,14.0978 2.70547,14.14982c0.0318,0.05201 4.6258,4.71185 10.20884,10.35519c5.58305,5.64335 10.24423,10.37176 10.35819,10.50759l0.20719,0.24698l-9.32157,1.53895c-5.12688,0.84642 -9.36844,1.56036 -9.42571,1.58654c-0.05728,0.02618 -0.30562,5.39585 -0.55187,11.93261c-0.24625,6.53675 -0.48483,12.29703 -0.53019,12.80063zM173.3295,263.29191c-2.09748,-0.96612 -3.71766,-1.86142 -7.10921,-4.17419c-3.68787,-2.44453 -7.48615,-6.43429 -10.59875,-10.39109c-1.72351,-2.19098 -4.20706,-5.72163 -4.07991,-5.80009c0.03658,-0.02257 1.68306,0.35102 3.65886,0.83022l3.59233,0.87125l1.58849,1.98954c1.90116,2.38115 3.44746,4.19825 5.77622,6.11873c2.88714,2.25962 4.0977,2.88974 6.53576,4.12484l2.53635,3.97317l2.45472,3.83104l-0.21001,0.02c-0.22297,0.02123 -3.2329,-0.99065 -4.14486,-1.39342zM187.55256,264.57882c-0.63701,0.21109 -1.22066,0.34998 -1.29699,0.30865l-0.13881,-0.07516l0.09345,-2.00061c0.0514,-1.10033 0.13615,-3.31689 0.18834,-4.92569l0.09489,-2.92509l1.08185,-0.97233c1.89979,-1.70747 3.61282,-4.14107 4.50087,-6.39404l0.42954,-1.08977l3.21967,-0.54158c1.77081,-0.29786 3.26281,-0.51716 3.31553,-0.48733c0.16724,0.09463 -0.09919,2.6982 -0.46914,4.58429c-1.45109,7.39815 -5.45615,12.67513 -11.0192,14.51863zM146.78171,227.21306c-0.79052,1.86419 -1.49336,3.35875 -1.56184,3.32109c-0.22701,-0.12463 -2.11512,-5.9987 -2.67802,-8.33153c-0.30449,-1.26195 -0.74521,-3.4416 -0.97937,-4.84368l-0.42573,-2.54922l-0.0156,-4.5721l-0.0156,-4.57211l0.34037,-1.81525c0.33769,-1.801 1.03454,-4.48494 1.25319,-4.82674l0.11388,-0.17801l1.98966,4.70595l1.98967,4.70595l-0.24692,1.64149c-0.54193,3.60282 -0.05877,8.1783 1.36091,12.88737l0.31274,1.03736l-1.43732,3.38945zM198.13965,233.10137l-0.14412,-0.08155c-0.07927,-0.04485 -1.82892,-1.78713 -3.88812,-3.87171l-3.74401,-3.79018l-0.55545,-1.33503c-1.55082,-3.72739 -4.04711,-8.37468 -6.30573,-11.73921l-0.42943,-0.6397l-1.07832,-5.68942c-0.59307,-3.12919 -1.05439,-5.7042 -1.02513,-5.72228c0.10889,-0.06726 3.54366,4.01663 4.83954,5.75414c4.44212,5.95605 8.16374,13.11487 10.46259,20.12556c0.68979,2.10363 1.52935,5.16298 1.76416,6.42856zM156.38428,197.239l-0.85161,-0.57132c-0.46838,-0.31423 -2.41923,-1.58919 -4.33524,-2.83327c-1.916,-1.24407 -3.50496,-2.29794 -3.53103,-2.34194c-0.11423,-0.19281 2.23235,-1.79526 3.37262,-2.3031c4.60584,-2.05129 9.59989,-1.88724 15.39043,0.50556l1.87547,0.775l1.70803,1.01833l1.70802,1.01832l-2.46374,2.25651c-1.35506,1.24108 -2.58027,2.24713 -2.72271,2.23565c-0.14244,-0.01147 -0.96935,-0.17005 -1.8376,-0.3524c-2.01705,-0.42362 -4.79723,-0.35038 -6.76812,0.17833z" fill="#ffffff" stroke-linecap="butt"/><path d="M128.07112,178.58589l79.61348,45.04959" fill="none" stroke-linecap="round"/><path d="M128.42787,212.49616l79.61348,45.04959" fill="none" stroke-linecap="round"/><path d="M240.57158,341.34343l0.43416,-163.61092l142.6631,-80.72645l-0.43417,163.61093z" fill="#1a1a1a" stroke-linecap="butt"/><path d="M269.14979,294.61424l0.27703,-104.40105l85.55631,-48.41236l-0.27703,104.40105z" fill="#272727" stroke-linecap="butt"/><path d="M271.65165,290.04823l0.26086,-98.30127l80.21312,-45.38889l-0.26086,98.30127z" fill="#2d2d2d" stroke-linecap="butt"/><g fill="none" stroke-linecap="round"><path d="M271.99453,191.6465l-2.48595,-1.4286"/><path d="M352.14234,146.29456l2.50102,-4.2505"/></g><g fill="none" stroke-linecap="round"><path d="M271.82265,289.92866l-2.50102,4.2505"/><path d="M354.2783,246.10612l-2.48594,-1.42861"/></g><path d="M303.80112,264.89453c-0.04536,-0.5036 -0.28395,-6.26388 -0.53018,-12.80063c-0.24625,-6.53675 -0.49459,-11.90643 -0.55187,-11.93261c-0.05729,-0.02618 -4.29885,-0.74012 -9.42572,-1.58654l-9.32156,-1.53895l0.20719,-0.24698c0.11396,-0.13583 4.77514,-4.86425 10.35819,-10.50759c5.58305,-5.64334 10.17704,-10.30318 10.20884,-10.35519c0.03181,-0.05201 1.24929,-6.41943 2.70548,-14.14982c1.4562,-7.73039 2.6679,-14.1405 2.69266,-14.2447c0.02478,-0.1042 3.12247,2.61956 6.88377,6.05276c3.76129,3.43321 6.88119,6.27684 6.93304,6.31919c0.05188,0.04234 5.07498,-3.1753 11.16245,-7.15032c6.08747,-3.97503 11.08801,-7.22306 11.11233,-7.2179c0.0243,0.00517 -2.66259,6.37745 -5.9709,14.16063c-3.3083,7.78318 -6.04877,14.31394 -6.08995,14.51283l-0.07488,0.36161l4.10974,9.63559c2.26035,5.29958 4.08258,9.68273 4.04938,9.74033c-0.03319,0.0576 -4.85294,1.27322 -10.71054,2.70138l-10.65017,2.59665l-7.08331,11.04166c-3.89581,6.07291 -7.72414,12.05023 -8.5074,13.28296l-1.42409,2.2413zM314.08011,258.81153c-0.91197,0.40277 -3.9219,1.41464 -4.14486,1.39342l-0.21001,-0.02l2.45472,-3.83104l2.53635,-3.97317c2.43805,-1.2351 3.64861,-1.86522 6.53576,-4.12484c2.32875,-1.92048 3.87507,-3.73759 5.77622,-6.11873l1.58849,-1.98954l3.59234,-0.87125c1.97579,-0.4792 3.62227,-0.85279 3.65886,-0.83022c0.12715,0.07846 -2.35638,3.6091 -4.07991,5.80009c-3.11261,3.9568 -6.91087,7.94656 -10.59875,10.39109c-3.39154,2.31277 -5.01171,3.20808 -7.1092,4.17419zM299.85705,260.09845c-5.56305,-1.8435 -9.56811,-7.12048 -11.0192,-14.51863c-0.36995,-1.8861 -0.63638,-4.48966 -0.46914,-4.58429c0.05272,-0.02983 1.54471,0.18947 3.31553,0.48733l3.21966,0.54158l0.42954,1.08977c0.88803,2.25297 2.60106,4.68657 4.50087,6.39404l1.08185,0.97233l0.09489,2.92509c0.05218,1.6088 0.13694,3.82536 0.18834,4.92569l0.09345,2.00061l-0.13881,0.07516c-0.07634,0.04134 -0.66,-0.09755 -1.29699,-0.30865zM340.62788,222.73268l-1.43732,-3.38945l0.31274,-1.03736c1.41968,-4.70907 1.90284,-9.28455 1.36091,-12.88737l-0.24692,-1.64149l1.98967,-4.70595l1.98966,-4.70595l0.11388,0.17801c0.21864,0.3418 0.91549,3.02574 1.25319,4.82674l0.34037,1.81525l-0.0156,4.57211l-0.01559,4.57211l-0.42574,2.54922c-0.23417,1.40208 -0.67489,3.58172 -0.97937,4.84368c-0.56289,2.33283 -2.45101,8.2069 -2.67802,8.33153c-0.06849,0.03766 -0.77131,-1.45689 -1.56184,-3.32109zM289.37401,228.06015c0.2348,-1.26558 1.07436,-4.32493 1.76416,-6.42856c2.29884,-7.01068 6.02047,-14.16951 10.46259,-20.12555c1.29587,-1.73751 4.73064,-5.8214 4.83954,-5.75414c0.02926,0.01808 -0.43205,2.59309 -1.02513,5.72228l-1.07833,5.68942l-0.42943,0.6397c-2.25861,3.36454 -4.7549,8.01181 -6.30573,11.73921l-0.55545,1.33503l-3.74401,3.79018c-2.05919,2.0846 -3.80884,3.82686 -3.88812,3.87172l-0.14412,0.08155zM329.4808,192.34431c-1.97089,-0.5287 -4.75107,-0.60194 -6.76812,-0.17833c-0.86823,0.18235 -1.69515,0.34092 -1.8376,0.3524c-0.14244,0.01148 -1.36766,-0.99457 -2.72271,-2.23565l-2.46374,-2.25651l1.70803,-1.01832l1.70803,-1.01833l1.87547,-0.775c5.79053,-2.39281 10.78459,-2.55686 15.39043,-0.50556c1.14026,0.50784 3.48685,2.11028 3.37261,2.3031c-0.02606,0.044 -1.61503,1.09786 -3.53103,2.34194c-1.916,1.24407 -3.86685,2.51904 -4.33524,2.83327l-0.85161,0.57132z" fill="#ffffff" stroke-linecap="butt"/><path d="M272.31539,223.37948l79.61348,-45.04959" fill="none" stroke-linecap="round"/><path d="M351.57213,212.24016l-79.61348,45.04959" fill="none" stroke-linecap="round"/><path d="M96.57262,96.62484l140.42939,-78.22429l146.51608,77.87544l-142.28179,81.68058z" fill="#1a1a1a" stroke-linecap="butt"/><path d="M150.6012,98.47422l90.79081,-50.16041l87.86699,48.54505l-90.79081,50.16041z" fill="#272727" stroke-linecap="butt"/><path d="M155.90578,98.37316l85.48624,-47.22972l82.3795,45.5133l-85.48624,47.22972z" fill="#2d2d2d" stroke-linecap="butt"/><g fill="none" stroke-linecap="round"><path d="M241.52318,51.1639l-0.09147,-2.7791"/><path d="M328.86579,96.69066l-5.0302,-0.05053"/></g><g fill="none" stroke-linecap="round"><path d="M151.07097,98.40865l5.03021,0.05053"/><path d="M238.32214,146.61346l-0.09146,-2.7791"/></g><path d="M204.94265,107.36805c0.41293,-0.28121 5.28628,-3.26218 10.82966,-6.62438c5.54337,-3.3622 10.07236,-6.16282 10.0644,-6.2236c-0.00795,-0.06078 -1.66042,-3.97059 -3.67213,-8.68847l-3.65767,-8.57796l0.32542,0.05494c0.17899,0.03022 6.78138,1.66576 14.67199,3.63453c7.89061,1.96878 14.39746,3.58093 14.45966,3.58256c0.06221,0.00164 6.24271,-2.04852 13.73446,-4.55591c7.49175,-2.50739 13.70623,-4.583 13.80996,-4.61248c0.10373,-0.02947 -0.60154,3.88897 -1.56728,8.70766c-0.96574,4.81868 -1.76321,8.81364 -1.77218,8.87768c-0.00897,0.06404 5.47563,2.73302 12.188,5.93106c6.71239,3.19804 12.21131,5.83338 12.21984,5.8563c0.00853,0.02293 -6.96341,0.84032 -15.49322,1.81643c-8.52979,0.97611 -15.66805,1.82497 -15.86278,1.88635l-0.35407,0.11161l-6.16405,8.10538c-3.39024,4.45796 -6.21952,8.1053 -6.28732,8.1052c-0.0678,-0.0001 -3.70528,-3.4645 -8.08329,-7.69866l-7.96001,-7.69848l-13.38122,-0.62409c-7.35966,-0.34324 -14.6002,-0.6759 -16.09007,-0.73924l-2.70886,-0.11515zM215.73073,113.07172c-0.83825,-0.57213 -3.32927,-2.61366 -3.4303,-2.81132l-0.09515,-0.18618l4.64122,0.21408l4.80833,0.21408c2.37846,1.4531 3.57407,2.16647 7.08261,3.50253c2.91497,1.03041 5.321,1.45303 8.40683,1.90167l2.57833,0.37485l2.68095,2.59895c1.47453,1.42942 2.68095,2.63302 2.68095,2.67467c0,0.14475 -4.39586,-0.23855 -7.22143,-0.62967c-5.10285,-0.70635 -10.60164,-1.97312 -14.6997,-3.89296c-3.82492,-1.73436 -5.47019,-2.66402 -7.43267,-3.9607zM206.99376,101.73789c-1.37971,-5.56578 1.05622,-11.47932 6.70201,-16.27003c1.43934,-1.22135 3.55705,-2.70201 3.72882,-2.60711c0.05415,0.02992 0.66303,1.38984 1.35311,3.02205l1.25465,2.96766l-0.71604,0.88706c-1.48032,1.83391 -2.67548,4.44845 -3.14015,6.86947l-0.26462,1.37868l-2.48877,1.49166c-1.36882,0.82041 -3.24786,1.96156 -4.17565,2.53588l-1.68688,1.04422l-0.13961,-0.08039c-0.07678,-0.04421 -0.26888,-0.60184 -0.42685,-1.23915zM261.2772,117.9712l2.17276,-2.84416l1.06818,-0.23785c4.84903,-1.07972 9.08037,-2.88214 11.91806,-5.0767l1.29289,-0.99987l5.15167,-0.59913l5.15168,-0.59913l-0.09356,0.18164c-0.17963,0.34876 -2.13654,2.23 -3.51927,3.38317l-1.39368,1.16229l-3.97792,2.1938l-3.97792,2.1938l-2.44135,0.87263c-1.34275,0.47994 -3.47125,1.16159 -4.73002,1.51479c-2.32695,0.6529 -8.4384,1.90123 -8.66822,1.77057c-0.06938,-0.03939 0.85167,-1.35154 2.0467,-2.91583zM229.19379,77.46198c1.22458,-0.41352 4.33054,-1.18456 6.52647,-1.62016c7.31833,-1.45172 15.52747,-1.77905 23.07835,-0.92021c2.20275,0.25054 7.58854,1.16634 7.58848,1.29034c-0.00002,0.03332 -2.48283,0.8885 -5.51735,1.90043l-5.51732,1.83984l-0.78545,-0.05217c-4.13113,-0.27442 -9.50329,-0.12945 -13.57029,0.3662l-1.45666,0.17753l-5.29644,-1.3175c-2.91305,-0.72462 -5.36303,-1.35429 -5.44445,-1.39927l-0.148,-0.08177zM281.689,93.93353c-0.59684,-1.9118 -2.02266,-4.284 -3.47104,-5.77493c-0.62346,-0.64176 -1.20413,-1.26027 -1.2904,-1.37446c-0.08628,-0.11419 0.13082,-1.62964 0.4824,-3.36767l0.63924,-3.16006l1.79916,0.94413l1.79916,0.94413l1.67761,1.20232c5.1796,3.71216 7.99749,7.83068 8.68399,12.69218c0.16996,1.20356 0.03581,3.94943 -0.1928,3.94648c-0.05216,-0.00067 -1.81839,-0.82756 -3.92497,-1.83753c-2.10658,-1.00997 -4.25864,-2.03432 -4.78237,-2.27634l-0.95225,-0.44004z" fill="#ffffff" stroke-linecap="butt"/><path d="M295.90775,111.92381l-81.76366,-45.17306" fill="none" stroke-linecap="round"/><path d="M266.27528,127.99209l-81.76366,-45.17306" fill="none" stroke-linecap="round"/></g></g></svg>