<svg version="1.1" xmlns="http://www.w3.org/2000/svg" xmlns:xlink="http://www.w3.org/1999/xlink" width="268.5" height="260.78374" viewBox="0,0,268.5,260.78374"><g transform="translate(-105.75,-49.60812)"><g data-paper-data="{&quot;isPaintingLayer&quot;:true}" fill-rule="nonzero" stroke="#000000" stroke-width="1.5" stroke-linejoin="miter" stroke-miterlimit="10" stroke-dasharray="" stroke-dashoffset="0" style="mix-blend-mode: normal"><g><path d="M106.5,309.64186v-259.28374h267v259.28374z" fill="#1a1a1a" stroke-linecap="butt"/><path d="M159.83334,261.14186v-165.45041h160.12225v165.45041z" fill="#272727" stroke-linecap="butt"/><path d="M164.50001,256.14186v-155.78374h150.12225v155.78374z" fill="#2d2d2d" stroke-linecap="butt"/><g fill="none" stroke-linecap="round"><path d="M159.98659,95.77234l4.66667,4.5"/><path d="M314.65326,100.27234l4.66667,-4.5"/></g><g fill="none" stroke-linecap="round"><path d="M164.81992,256.10567l-4.66667,4.5"/><path d="M319.15325,260.60567l-4.66666,-4.5"/></g><path d="M224.63446,245.0925c-0.08752,-0.84002 -0.56337,-10.19668 -1.05744,-20.79258c-0.49407,-10.5959 -0.98625,-19.34136 -1.09374,-19.43435c-0.10749,-0.093 -8.06127,-5.03545 -17.67506,-10.98323l-17.47961,-10.81414l0.38712,-0.20591c0.21292,-0.11325 8.92612,-3.43175 19.36268,-7.37445c10.43656,-3.94269 19.02415,-7.21271 19.08351,-7.26669c0.05938,-0.05398 2.30967,-9.06658 5.00066,-20.028c2.69099,-10.96142 4.93026,-20.04695 4.97617,-20.19008c0.04591,-0.14312 5.86563,6.96185 12.93274,15.78883c7.06709,8.82698 12.929,16.14214 13.02643,16.25594c0.09744,0.11379 9.49652,-0.48187 20.88684,-1.32368c11.39033,-0.84182 20.74697,-1.506 20.79256,-1.47597c0.04558,0.03004 -4.95894,7.73066 -11.12117,17.11251c-6.16222,9.38184 -11.26637,17.28591 -11.34258,17.56458l-0.13855,0.50668l7.75104,18.98396c4.26307,10.44118 7.70036,19.03437 7.63842,19.09598c-0.06194,0.06161 -9.0898,-2.33759 -20.06193,-5.33154l-19.9493,-5.44356l-13.22172,11.16322c-7.27194,6.13977 -14.41786,12.18845 -15.87983,13.44152l-2.65811,2.2783zM243.87072,244.66937c-1.70734,-0.17978 -7.34399,-1.27698 -7.76201,-1.51091l-0.39374,-0.22035l4.58197,-3.87584l4.73424,-4.02812c4.56364,0.22931 6.82953,0.31642 12.22983,-0.677c4.35537,-0.95664 7.24465,-2.45193 10.79626,-4.52373l2.9675,-1.73107l6.72899,1.84344c3.70095,1.01389 6.78519,1.89963 6.85387,1.96832c0.23872,0.23872 -4.39876,3.61192 -7.61836,5.54143c-5.81445,3.4846 -12.91392,6.40572 -19.81415,6.9735c-6.34545,0.62479 -9.37778,0.5907 -13.30441,0.24033zM217.21802,233.93828c-10.4363,-7.92201 -17.96946,-19.89423 -20.72612,-32.93936c-0.70279,-3.32574 -1.21513,-7.69724 -0.90213,-7.69724c0.09867,0 2.89628,1.688 6.21691,3.75111l6.0375,3.75111l0.81053,2.11538c1.67569,4.37332 4.89865,9.77424 8.46803,14.19042l2.03262,2.51484l0.1924,4.72774c0.10582,2.60025 0.2757,6.19437 0.37751,7.98691l0.18511,3.25917l-0.25979,-0.00538c-0.14288,-0.00295 -1.23755,-0.74757 -2.43257,-1.65469zM293.45126,211.24942l-2.7109,-6.67037l0.58103,-1.36556c2.63757,-6.19896 3.52044,-13.02696 2.48673,-19.23186l-0.47097,-2.82703l3.70593,-5.68211l3.70593,-5.68211l0.21432,0.38481c0.41151,0.73885 1.73101,5.62447 2.37293,8.78619l0.647,3.18674l-0.00649,7.24258l-0.00649,7.24258l-0.78532,3.66362c-0.43193,2.01499 -1.24715,5.0786 -1.8116,6.80803c-1.04345,3.197 -4.55323,10.82429 -4.97812,10.81821c-0.12818,-0.00174 -1.45297,-3.005 -2.94396,-6.6737zM197.40971,173.67428c0.43381,-1.79778 1.99223,-5.89941 3.27468,-8.61867c4.27398,-9.06238 11.21402,-17.08209 19.51051,-22.54576c2.42027,-1.59387 8.83794,-4.99085 9.04239,-4.78629c0.05493,0.05497 -0.79693,3.72759 -1.893,8.16141l-1.99288,8.06147l-0.80172,0.62963c-4.21671,3.31156 -8.87254,8.44555 -11.76079,12.96868l-1.03448,1.62004l-6.99875,2.65309c-3.84931,1.4592 -7.12012,2.65308 -7.26847,2.65308h-0.26972zM272.4065,153.0077c-3.69679,-2.60916 -8.90819,-5.22225 -12.68676,-6.36141c-1.62647,-0.49034 -3.17561,-0.9813 -3.44254,-1.09102c-0.26693,-0.10971 -2.56844,-2.80682 -5.11447,-5.99355l-4.62915,-5.79406l3.19639,-0.08226l3.1964,-0.08226l3.51145,0.45431c10.84161,1.40269 20.20146,5.62744 28.84463,13.01958c2.13979,1.83007 6.54608,6.48082 6.33292,6.68425c-0.04864,0.04642 -3.02168,0.29203 -6.60676,0.54581c-3.58508,0.25378 -7.23533,0.52529 -8.11169,0.60336l-1.59337,0.14194z" fill="#ffffff" stroke-linecap="butt"/><path d="M165.4125,150.9252h149" fill="none" stroke-linecap="round"/><path d="M164.9125,204.4252h149" fill="none" stroke-linecap="round"/></g></g></g></svg>